Coordinates
nRows=6
nColumns=38

# SIMM Motion File Header:
name Coordinates
datacolumns 38
datarows 6
otherdata 1
range 0.83957999999999999000 0.84458000000000000000

Units are S.I. units (second, meters, Newtons, ...)
Angles are in degrees.

endheader
time	pelvis_tilt	pelvis_list	pelvis_rotation	pelvis_tx	pelvis_ty	pelvis_tz	hip_flexion_r	hip_adduction_r	hip_rotation_r	knee_angle_r	ankle_angle_r	subtalar_angle_r	mtp_angle_r	hip_flexion_l	hip_adduction_l	hip_rotation_l	knee_angle_l	ankle_angle_l	subtalar_angle_l	mtp_angle_l	lumbar_extension	lumbar_bending	lumbar_rotation	arm_flex_r	arm_add_r	arm_rot_r	elbow_flex_r	pro_sup_r	wrist_flex_r	wrist_dev_r	arm_flex_l	arm_add_l	arm_rot_l	elbow_flex_l	pro_sup_l	wrist_flex_l	wrist_dev_l
      0.83957999999999999000	     -1.30251338958560430000	      0.92204976597173394000	      2.37902107449364840000	      0.74474587281513915000	      1.01263253573427740000	     -0.37975585011696328000	     24.63410523212549600000	     -0.74675632306748707000	     -0.66638785672687351000	    -17.31435795226790800000	      0.99407393419300005000	      0.00000000000000000000	      0.00000000000000000000	    -10.92901217820986500000	      3.46681560243553480000	      1.92211969897957240000	    -48.34155305026741400000	    -18.71406786453906800000	      0.00000000000000000000	      0.00000000000000000000	    -12.36330465006839900000	      2.02240060203722380000	    -16.21851147373848800000	    -31.29590326016963100000	    -31.92351203398084200000	    -11.11681698010903400000	    117.50346700547647000000	     66.73366922248723700000	      0.00000000000000000000	      0.00000000000000000000	    -25.28499107477681200000	    -32.34008038111930000000	      6.75612485513469350000	    133.78647370666584000000	     94.83194247124066600000	      0.00000000000000000000	      0.00000000000000000000
      0.84057999999999999000	     -1.25283163881327960000	      0.93670194352502556000	      2.35135501796017050000	      0.74471855942098286000	      1.01222078228494560000	     -0.37967531773484164000	     24.53158679961700600000	     -0.72858240887754333000	     -0.62539916083317737000	    -17.23228910875508300000	      0.93211428767584292000	     -0.00000000000000000088	      0.00000000000000000125	    -10.74344353907005500000	      3.49672020120536290000	      1.88413031354624730000	    -49.03411702371723600000	    -18.48098972076151000000	     -0.00000000000000000090	     -0.00000000000000000020	    -12.43977534805409000000	      2.02630900999436970000	    -16.16026109244657900000	    -31.21277425819024700000	    -31.97883182291295200000	    -11.20128275508910300000	    117.51101048903477000000	     66.69664730739776800000	      0.00000000000000000021	     -0.00000000000000000016	    -25.39067552165584000000	    -32.31500884958494200000	      6.74363692499660510000	    133.75427098986447000000	     94.75783655865539900000	     -0.00000000000000000000	     -0.00000000000000000087
      0.84157999999999999000	     -1.20093600838985860000	      0.94876698214530275000	      2.32287329640635540000	      0.74468983384606391000	      1.01180215384359370000	     -0.37959329701406819000	     24.42821884939907700000	     -0.70746173388943023000	     -0.58398429944842978000	    -17.15997518946888400000	      0.86477186825570429000	      0.00000000000000000041	      0.00000000000000000416	    -10.55840072959568400000	      3.52271985154603810000	      1.84135319126720010000	    -49.72763336559030700000	    -18.24877142967323400000	     -0.00000000000000000309	      0.00000000000000000023	    -12.51863242819689000000	      2.03309276402689940000	    -16.09980692132001300000	    -31.12792135593299400000	    -32.03529766783805900000	    -11.28502310057898800000	    117.51796454739674000000	     66.66066721856861900000	      0.00000000000000000006	     -0.00000000000000000088	    -25.49492568244751600000	    -32.28858263713581100000	      6.72983535412053070000	    133.72005687834215000000	     94.68820620349546900000	      0.00000000000000000036	     -0.00000000000000000179
      0.84258000000000000000	     -1.14678895987440540000	      0.95826725861995610000	      2.29355714163389960000	      0.74465972746678033000	      1.01137678570922660000	     -0.37950978357090565000	     24.32398332876384100000	     -0.68344315531889543000	     -0.54236917234295456000	    -17.09747436324885300000	      0.79098909773849790000	      0.00000000000000000523	      0.00000000000000000906	    -10.37397445021378100000	      3.54480291701461380000	      1.79388287978101730000	    -50.42192956947622000000	    -18.01765540330903200000	     -0.00000000000000000594	      0.00000000000000000165	    -12.59991124704375000000	      2.04271502178687570000	    -16.03715934834417900000	    -31.04130095424822500000	    -32.09292971375369100000	    -11.36798088656783900000	    117.52429511096258000000	     66.62574969906300700000	      0.00000000000000000017	     -0.00000000000000000123	    -25.59779315271188300000	    -32.26078431488350200000	      6.71466739788523270000	    133.68386970290842000000	     94.62304614939522200000	      0.00000000000000000016	     -0.00000000000000000308
      0.84358000000000000000	     -1.09012218699063810000	      0.96523012994534452000	      2.26356051012719690000	      0.74462839707999451000	      1.01094514060665720000	     -0.37942494897096790000	     24.21846908062303100000	     -0.65660269395604609000	     -0.50076000511196206000	    -17.04461238581605500000	      0.71137143637697409000	      0.00000000000000001056	      0.00000000000000001551	    -10.19052395829271700000	      3.56291414733430890000	      1.74197898428423060000	    -51.11678752671049600000	    -17.78792137269589100000	     -0.00000000000000000785	      0.00000000000000000383	    -12.68389256127174600000	      2.05516528854599970000	    -15.97249961815232700000	    -30.95283901091215700000	    -32.15172924284309600000	    -11.45008066088744600000	    117.52998030349018000000	     66.59191054582190400000	      0.00000000000000000068	     -0.00000000000000000182	    -25.69932529827826400000	    -32.23164431736994100000	      6.69805355266617310000	    133.64579315665515000000	     94.56230386476472900000	      0.00000000000000000006	     -0.00000000000000000377
      0.84458000000000000000	     -1.03087282750218320000	      0.96970056199247201000	      2.23296128583587320000	      0.74459592561618471000	      1.01050735714270630000	     -0.37933887519161547000	     24.11156004610265000000	     -0.62701724866366670000	     -0.45932043294919805000	    -17.00134221688092900000	      0.62619710567517606000	      0.00000000000000001710	      0.00000000000000002175	    -10.00816861590940300000	      3.57705014656686780000	      1.68584087660914330000	    -51.81204298431357800000	    -17.55980684633754800000	     -0.00000000000000000987	      0.00000000000000000652	    -12.77063387990032000000	      2.07039158047028280000	    -15.90593979892637200000	    -30.86249160998410800000	    -32.21170203747199400000	    -11.53125365588732400000	    117.53499199812651000000	     66.55916693432415300000	      0.00000000000000000082	     -0.00000000000000000406	    -25.79960077870950400000	    -32.20116812345723600000	      6.67991841233060240000	    133.60589566135084000000	     94.50594145196545500000	      0.00000000000000000053	     -0.00000000000000000406
